<?xml version="1.0" standalone="no"?>
<!DOCTYPE svg PUBLIC "-//W3C//DTD SVG 20010904//EN"
 "http://www.w3.org/TR/2001/REC-SVG-20010904/DTD/svg10.dtd">
<svg version="1.0" xmlns="http://www.w3.org/2000/svg"
 width="506.000000pt" height="506.000000pt" viewBox="0 0 506.000000 506.000000"
 preserveAspectRatio="xMidYMid meet">
<metadata>
Created by potrace 1.14, written by Peter Selinger 2001-2017
</metadata>
<g transform="translate(0.000000,506.000000) scale(0.100000,-0.100000)"
fill="#000000" stroke="none">
<path d="M550 4734 c-204 -40 -376 -165 -467 -339 -84 -161 -77 -2 -78 -1860
0 -1791 -3 -1692 55 -1822 72 -159 200 -284 357 -348 129 -52 105 -51 1693
-50 811 1 1493 5 1514 9 63 12 172 52 221 80 117 69 225 185 281 303 54 116
62 191 57 583 l-3 355 400 399 c242 242 410 417 425 444 57 102 56 80 53 943
l-3 794 -23 62 c-87 241 -278 405 -522 448 -109 19 -3863 18 -3960 -1z m3940
-429 c207 -73 257 -353 90 -497 l-48 -41 -1 -499 c-1 -314 -5 -508 -12 -525
-5 -16 -203 -221 -439 -458 l-429 -430 0 -273 0 -273 26 -22 c53 -44 76 -73
101 -126 65 -141 5 -310 -135 -381 -40 -21 -62 -25 -133 -25 -74 0 -91 3 -131
27 -127 75 -184 207 -145 340 17 61 70 136 110 157 l26 14 0 312 c0 172 3 328
6 346 6 28 83 111 440 469 l434 436 0 452 0 452 -58 58 c-64 62 -92 123 -93
203 -3 140 97 267 231 295 63 13 98 11 160 -11z m-853 -13 c126 -65 192 -220
149 -350 -20 -59 -72 -131 -110 -151 l-26 -14 0 -319 c0 -246 -3 -326 -14
-351 -16 -39 -530 -555 -565 -569 -15 -5 -242 -9 -552 -9 l-527 0 -18 -37 c-9
-20 -43 -62 -75 -93 -169 -166 -441 -136 -569 62 -124 192 -56 441 148 541 61
30 74 33 162 33 82 0 103 -4 152 -27 69 -32 140 -96 174 -157 l26 -46 484 0
484 0 203 203 202 202 0 279 0 279 -48 42 c-99 87 -129 220 -78 338 28 62 102
133 164 156 60 22 179 16 234 -12z"/>
<path d="M1597 2805 c-92 -32 -131 -120 -89 -205 51 -103 201 -108 262 -8 69
114 -47 256 -173 213z"/>
</g>
</svg>
